#N canvas 411 23 780 684 10;
#X obj 35 394 dac~;
#X obj 29 19 notein;
#X obj 32 310 *~;
#X obj 29 95 pack 0 0 0;
#X obj 614 131 vsl 15 128 10 10010 1 0 r empty R 0 -9 0 10 -262144
-1 -1 9500 1;
#X obj 528 131 vsl 15 128 10 10010 1 0 d empty D 0 -9 0 10 -262144
-1 -1 12700 1;
#X obj 491 131 vsl 15 128 10 10010 1 0 a empty A 0 -9 0 10 -262144
-1 -1 9100 1;
#X obj 572 131 vsl 15 128 0 1 0 0 s empty S 0 -9 0 10 -262144 -1 -1
12700 1;
#X obj 221 395 hsl 128 15 0 1 0 0 empty bs_volume Volume -2 -8 0 10
-262144 -1 -1 1100 1;
#X obj 491 358 s a;
#X obj 528 358 s d;
#X obj 572 358 s s;
#X obj 614 358 s r;
#X obj 29 171 note;
#X obj 66 179 note;
#X obj 103 203 note;
#X obj 218 357 r bs_volume;
#X obj 411 19 r bs_a;
#X obj 504 19 r bs_d;
#X obj 568 19 r bs_s;
#X obj 655 19 r bs_r;
#X obj 144 221 note;
#X obj 181 221 note;
#X obj 218 245 note;
#X obj 29 133 route 1 2 3 4 5 6;
#X obj 29 57 poly 6 1;
#X obj 491 320 - 10;
#X obj 528 320 - 10;
#X obj 572 320 - 0.1;
#X obj 614 320 - 10;
#X connect 1 0 25 0;
#X connect 1 1 25 1;
#X connect 2 0 0 0;
#X connect 2 0 0 1;
#X connect 3 0 24 0;
#X connect 4 0 29 0;
#X connect 5 0 27 0;
#X connect 6 0 26 0;
#X connect 7 0 28 0;
#X connect 8 0 2 1;
#X connect 13 0 2 0;
#X connect 14 0 2 0;
#X connect 15 0 2 0;
#X connect 16 0 8 0;
#X connect 17 0 6 0;
#X connect 18 0 5 0;
#X connect 19 0 7 0;
#X connect 20 0 4 0;
#X connect 21 0 2 0;
#X connect 22 0 2 0;
#X connect 23 0 2 0;
#X connect 24 0 13 0;
#X connect 24 1 14 0;
#X connect 24 2 15 0;
#X connect 24 3 21 0;
#X connect 24 4 22 0;
#X connect 24 5 23 0;
#X connect 25 0 3 0;
#X connect 25 1 3 1;
#X connect 25 2 3 2;
#X connect 26 0 9 0;
#X connect 27 0 10 0;
#X connect 28 0 11 0;
#X connect 29 0 12 0;
