#N canvas 637 282 450 300 10;
#X obj 72 -406 inlet~;
#X obj 292 -394 switch~;
#X obj 293 -430 inlet;
#X obj 17 -355 env~;
#X obj 18 -292 vu 15 120 empty empty -1 -8 0 10 -66577 -1 1 0;
#X obj 17 -326 - 100;
#X obj 142 -401 inlet;
#X obj 84 -253 outlet~;
#X obj 72 -326 bp~ 220 1;
#X obj 150 -352 r band_width;
#X floatatom 160 -313 5 0 0 0 - - -;
#X connect 0 0 3 0;
#X connect 0 0 8 0;
#X connect 2 0 1 0;
#X connect 3 0 5 0;
#X connect 5 0 4 0;
#X connect 6 0 8 1;
#X connect 8 0 7 0;
#X connect 9 0 8 2;
#X connect 9 0 10 0;
