#N canvas 87 25 1137 414 10;
#X floatatom -230 -1218 5 0 0 0 - - -;
#X obj -230 -1184 mtof;
#X msg -488 -1113 1 50 \, 0.95 100 50 \, 0 50 950;
#X msg -311 -1114 1 50 \, 0.95 100 50 \, 0 50 950;
#X msg -129 -1115 1 100 \, 0.95 100 100 \, 0 50 950;
#X obj -426 -1061 vline~;
#X obj -364 -1066 osc~ 220;
#X obj -410 -1016 *~;
#X obj -422 -967 *~ 0.1;
#X floatatom -417 -1168 5 0 0 0 - - -;
#X obj -226 -1141 * 3;
#X obj -114 -1147 * 5;
#X obj -277 -1057 vline~;
#X obj -215 -1062 osc~ 220;
#X obj -261 -1012 *~;
#X obj -273 -963 *~ 0.066;
#X obj -96 -1066 vline~;
#X obj -34 -1071 osc~ 220;
#X obj -80 -1021 *~;
#X obj -92 -972 *~ 0.066;
#X msg 60 -1114 1 100 \, 0.9 100 100 \, 0 100 900;
#X msg 249 -1114 1 200 \, 0.9 200 200 \, 0 100 900;
#X msg 446 -1111 1 200 \, 0.9 200 200 \, 0 100 900;
#X obj 97 -1150 * 7;
#X obj 331 -1144 * 8;
#X obj 457 -1158 * 9;
#X obj 102 -1070 vline~;
#X obj 164 -1075 osc~ 220;
#X obj 118 -1025 *~;
#X obj 300 -1054 vline~;
#X obj 362 -1059 osc~ 220;
#X obj 316 -1009 *~;
#X obj 106 -976 *~ 0.031;
#X obj 304 -960 *~ 0.048;
#X obj 444 -1061 vline~;
#X obj 506 -1066 osc~ 220;
#X obj 460 -1016 *~;
#X obj 448 -967 *~ 0.024;
#X obj 29 -874 outlet~;
#X obj -230 -1272 inlet;
#X obj -230 -1244 unpack 0 0;
#X obj 73 -1304 inlet;
#X obj 73 -1275 switch~;
#X connect 0 0 1 0;
#X connect 1 0 9 0;
#X connect 1 0 10 0;
#X connect 1 0 11 0;
#X connect 1 0 3 0;
#X connect 1 0 2 0;
#X connect 1 0 4 0;
#X connect 1 0 23 0;
#X connect 1 0 20 0;
#X connect 1 0 24 0;
#X connect 1 0 21 0;
#X connect 1 0 22 0;
#X connect 1 0 25 0;
#X connect 2 0 5 0;
#X connect 3 0 12 0;
#X connect 4 0 16 0;
#X connect 5 0 7 0;
#X connect 6 0 7 1;
#X connect 7 0 8 0;
#X connect 8 0 38 0;
#X connect 9 0 6 0;
#X connect 10 0 13 0;
#X connect 11 0 17 0;
#X connect 12 0 14 0;
#X connect 13 0 14 1;
#X connect 14 0 15 0;
#X connect 15 0 38 0;
#X connect 16 0 18 0;
#X connect 17 0 18 1;
#X connect 18 0 19 0;
#X connect 19 0 38 0;
#X connect 20 0 26 0;
#X connect 21 0 29 0;
#X connect 22 0 34 0;
#X connect 23 0 27 0;
#X connect 24 0 30 0;
#X connect 25 0 35 0;
#X connect 26 0 28 0;
#X connect 27 0 28 1;
#X connect 28 0 32 0;
#X connect 29 0 31 0;
#X connect 30 0 31 1;
#X connect 31 0 33 0;
#X connect 32 0 38 0;
#X connect 33 0 38 0;
#X connect 34 0 36 0;
#X connect 35 0 36 1;
#X connect 36 0 37 0;
#X connect 37 0 38 0;
#X connect 39 0 40 0;
#X connect 40 0 0 0;
#X connect 41 0 42 0;
