#N canvas 476 245 595 590 10;
#X obj -213 -1021 env~;
#X obj -212 -956 vu 15 120 empty empty -1 -8 0 10 -66577 -1 1 0;
#X obj -213 -992 - 100;
#X floatatom -255 -1200 5 0 0 0 - - -;
#X obj -255 -1226 + 1;
#X obj -255 -1142 == 1;
#X obj -217 -1141 == 2;
#X obj -255 -1249 r wave_shape;
#X obj -255 -1173 t f f;
#X obj -52 -1056 sin_wave;
#X obj -174 -1056 saw_wave;
#X obj 38 -990 env~;
#X obj 39 -925 vu 15 120 empty empty -1 -8 0 10 -66577 -1 1 0;
#X obj 38 -961 - 100;
#X floatatom -209 -1114 5 0 0 0 - - -;
#X floatatom -255 -1112 5 0 0 0 - - -;
#X obj -148 -1190 inlet;
#X obj -137 -944 outlet~;
#X connect 0 0 2 0;
#X connect 2 0 1 0;
#X connect 3 0 8 0;
#X connect 4 0 3 0;
#X connect 5 0 15 0;
#X connect 6 0 14 0;
#X connect 7 0 4 0;
#X connect 8 0 5 0;
#X connect 8 1 6 0;
#X connect 9 0 11 0;
#X connect 9 0 17 0;
#X connect 10 0 0 0;
#X connect 10 0 17 0;
#X connect 11 0 13 0;
#X connect 13 0 12 0;
#X connect 14 0 9 1;
#X connect 15 0 10 1;
#X connect 16 0 9 0;
#X connect 16 0 10 0;
