#N canvas 677 169 762 619 10;
#X obj 47 -1259 inlet;
#X obj 507 -1196 inlet;
#X obj 507 -1167 switch~;
#X obj 92 -1252 r porto_rate;
#X msg 47 -1197 \$1 \$2;
#X obj 47 -1224 pack 0 0;
#X obj 46 -972 outlet~;
#X obj 47 -1169 unpack 0 0;
#X obj 47 -1143 mtof;
#X obj 47 -1097 custom_waves;
#X obj 149 -1105 adsr;
#X obj 213 -1143 sel 0;
#X obj 213 -1115 / 127;
#X obj 47 -1057 *~;
#X obj 46 -1009 *~;
#X connect 0 0 5 0;
#X connect 1 0 2 0;
#X connect 3 0 5 1;
#X connect 4 0 7 0;
#X connect 5 0 4 0;
#X connect 7 0 8 0;
#X connect 7 1 10 0;
#X connect 7 1 11 0;
#X connect 8 0 9 0;
#X connect 9 0 13 0;
#X connect 10 0 13 1;
#X connect 11 1 12 0;
#X connect 12 0 14 1;
#X connect 13 0 14 0;
#X connect 14 0 6 0;
