#N canvas 690 118 590 613 10;
#X obj -100 6 inlet;
#X obj -100 30 unpack 0 0;
#X obj -104 108 route 0 1;
#X obj -224 40 r wave_shape;
#X floatatom -224 68 5 0 0 0 - - -;
#X obj -237 505 outlet~;
#X obj -122 252 / 127;
#X obj -237 443 *~;
#X obj -237 409 *~;
#X obj -93 211 sel 0;
#X obj -237 380 -~ 0.5;
#X obj -237 473 vcf~;
#N canvas 37 50 475 394 filter 1;
#X obj 151 45 inlet;
#X obj 178 363 outlet~;
#X msg 151 86 bang;
#X obj 151 127 f;
#X obj 221 65 r start;
#X obj 151 166 t b f;
#X obj 178 292 line~;
#X obj 271 170 r end;
#X obj 316 170 r time;
#X obj 243 213 pack 0 0 0;
#X obj 243 248 route 0;
#X text 10 4 Patch to control cuttoff frequency of vcf;
#X connect 0 0 2 0;
#X connect 2 0 3 0;
#X connect 3 0 5 0;
#X connect 4 0 3 1;
#X connect 5 0 9 0;
#X connect 5 1 6 0;
#X connect 6 0 1 0;
#X connect 7 0 9 1;
#X connect 8 0 9 2;
#X connect 9 0 10 0;
#X connect 10 0 6 0;
#X restore -67 256 pd filter;
#X obj -166 430 r q;
#X obj -131 210 adsr;
#X obj -316 260 line~;
#X msg -316 233 \$1 \$2;
#X obj -316 176 mtof;
#X obj -316 289 osc~;
#X obj -104 75 pack f f f;
#X obj -278 177 r porto_rate;
#X obj -316 145 unpack 0 0;
#X obj -316 206 pack 0 0;
#X obj 44 270 line~;
#X msg 44 243 \$1 \$2;
#X obj 44 183 mtof;
#X obj 82 184 r porto_rate;
#X obj 44 139 unpack 0 0;
#X obj 44 217 pack 0 0;
#X obj 44 299 phasor~;
#X obj -130 32 bng 15 250 50 0 empty empty empty 17 7 0 10 -262144
-1 -1;
#X text -227 19 Wave shape;
#X connect 0 0 1 0;
#X connect 0 0 30 0;
#X connect 1 0 19 1;
#X connect 1 1 19 2;
#X connect 2 0 21 0;
#X connect 2 1 27 0;
#X connect 3 0 4 0;
#X connect 3 0 19 0;
#X connect 6 0 7 1;
#X connect 7 0 11 0;
#X connect 8 0 7 0;
#X connect 9 1 6 0;
#X connect 9 1 12 0;
#X connect 10 0 8 0;
#X connect 11 0 5 0;
#X connect 12 0 11 1;
#X connect 13 0 11 2;
#X connect 14 0 8 1;
#X connect 15 0 18 0;
#X connect 16 0 15 0;
#X connect 17 0 22 0;
#X connect 18 0 10 0;
#X connect 19 0 2 0;
#X connect 20 0 22 1;
#X connect 21 0 17 0;
#X connect 21 1 14 0;
#X connect 21 1 9 0;
#X connect 22 0 16 0;
#X connect 23 0 29 0;
#X connect 24 0 23 0;
#X connect 25 0 28 0;
#X connect 26 0 28 1;
#X connect 27 0 25 0;
#X connect 27 1 9 0;
#X connect 27 1 14 0;
#X connect 28 0 24 0;
#X connect 29 0 10 0;
#X connect 30 0 19 0;
