#N canvas 220 23 963 657 10;
#X obj 39 -1792 inlet~;
#X obj 169 -1572 reverb;
#X floatatom -129 -1687 5 0 0 0 - - -, f 5;
#X obj 16 -1293 outlet~;
#X obj -242 -1777 env~;
#X obj -241 -1714 vu 15 120 empty empty -1 -8 0 10 -66577 -1 1 0;
#X obj -242 -1748 - 100;
#X obj 353 -1746 env~;
#X obj 354 -1683 vu 15 120 empty empty -1 -8 0 10 -66577 -1 1 0;
#X obj 353 -1717 - 100;
#X obj -129 -1709 == 1;
#X obj -129 -1779 r reverb_on;
#X obj -91 -1709 == 2;
#X obj -129 -1757 + 1;
#X floatatom -91 -1686 5 0 0 0 - - -, f 5;
#X obj -104 -1573 unaltered_signal;
#X obj -129 -1732 t f f;
#X obj 239 -1363 env~;
#X obj 240 -1300 vu 15 120 empty empty -1 -8 0 10 -66577 -1 1 0;
#X obj 239 -1334 - 100;
#X obj -129 -1732 t f f;
#X obj 114 -1391 wahwah;
#X obj -185 -1576 r wahwah_on;
#X obj -185 -1554 + 1;
#X obj -79 -1386 unaltered_signal;
#X obj -185 -1527 t f f;
#X floatatom -185 -1479 5 0 0 0 - - -, f 5;
#X obj -185 -1503 == 1;
#X obj -147 -1503 == 2;
#X floatatom -147 -1478 5 0 0 0 - - -, f 5;
#X obj -238 -1485 env~;
#X obj -237 -1422 vu 15 120 empty empty -1 -8 0 10 -66577 -1 1 0;
#X obj -238 -1456 - 100;
#X connect 0 0 15 0;
#X connect 0 0 1 0;
#X connect 1 0 7 0;
#X connect 1 0 21 0;
#X connect 1 0 24 0;
#X connect 2 0 15 1;
#X connect 4 0 6 0;
#X connect 6 0 5 0;
#X connect 7 0 9 0;
#X connect 9 0 8 0;
#X connect 10 0 2 0;
#X connect 11 0 13 0;
#X connect 12 0 14 0;
#X connect 13 0 16 0;
#X connect 13 0 20 0;
#X connect 14 0 1 1;
#X connect 15 0 4 0;
#X connect 15 0 21 0;
#X connect 15 0 24 0;
#X connect 16 0 10 0;
#X connect 16 1 12 0;
#X connect 17 0 19 0;
#X connect 19 0 18 0;
#X connect 20 0 10 0;
#X connect 20 1 12 0;
#X connect 21 0 17 0;
#X connect 21 0 3 0;
#X connect 22 0 23 0;
#X connect 23 0 25 0;
#X connect 24 0 3 0;
#X connect 24 0 30 0;
#X connect 25 0 27 0;
#X connect 25 1 28 0;
#X connect 26 0 24 1;
#X connect 27 0 26 0;
#X connect 28 0 29 0;
#X connect 29 0 21 1;
#X connect 30 0 32 0;
#X connect 32 0 31 0;
