#N canvas 945 192 926 553 10;
#X obj 62 -839 inlet~;
#X obj -92 -687 lowpass_filter;
#X obj 62 -687 highpass_filter;
#X obj 62 -571 outlet~;
#X obj 211 -829 mtof;
#X obj -211 -883 r filter_type;
#X floatatom -211 -834 5 0 0 0 - - -, f 5;
#X obj 297 -613 env~;
#X obj 231 -583 vu 15 120 empty empty -1 -8 0 10 -66577 -1 1 0;
#X obj 297 -584 - 100;
#X obj 350 -684 no_filter;
#X obj -211 -807 t f f f f;
#X obj 185 -678 bp_filter;
#X obj -211 -860 + 1;
#X obj -173 -714 == 1;
#X obj -173 -777 == 2;
#X obj -134 -775 == 3;
#X obj -81 -776 == 4;
#X obj -75 -598 env~;
#X obj -141 -568 vu 15 120 empty empty -1 -8 0 10 -66577 -1 1 0;
#X obj -75 -569 - 100;
#X obj 13 -592 env~;
#X obj -12 -550 vu 15 120 empty empty -1 -8 0 10 -66577 -1 1 0;
#X obj 54 -551 - 100;
#X obj 410 -613 env~;
#X obj 344 -583 vu 15 120 empty empty -1 -8 0 10 -66577 -1 1 0;
#X obj 410 -584 - 100;
#X floatatom 255 -824 5 0 0 0 - - -, f 5;
#X obj 211 -868 r cutoff_freq;
#X connect 0 0 1 0;
#X connect 0 0 2 0;
#X connect 0 0 10 0;
#X connect 0 0 12 0;
#X connect 1 0 3 0;
#X connect 1 0 18 0;
#X connect 2 0 3 0;
#X connect 2 0 21 0;
#X connect 4 0 1 1;
#X connect 4 0 2 1;
#X connect 4 0 12 1;
#X connect 5 0 13 0;
#X connect 6 0 11 0;
#X connect 7 0 9 0;
#X connect 9 0 8 0;
#X connect 10 0 3 0;
#X connect 10 0 24 0;
#X connect 11 0 14 0;
#X connect 11 1 15 0;
#X connect 11 2 16 0;
#X connect 11 3 17 0;
#X connect 12 0 3 0;
#X connect 12 0 7 0;
#X connect 13 0 6 0;
#X connect 14 0 10 1;
#X connect 15 0 2 2;
#X connect 16 0 12 2;
#X connect 17 0 1 2;
#X connect 18 0 20 0;
#X connect 20 0 19 0;
#X connect 21 0 23 0;
#X connect 23 0 22 0;
#X connect 24 0 26 0;
#X connect 26 0 25 0;
#X connect 28 0 4 0;
#X connect 28 0 27 0;
