#N canvas 227 35 956 680 10;
#X obj 210 -1441 noise~;
#X obj 210 -1319 *~;
#X obj 304 -1367 vline~;
#X obj 433 -1429 mtof;
#X floatatom 381 -1458 5 0 0 0 - - -, f 5;
#X text 447 -1404 period / freq;
#X obj 367 -1505 inlet;
#X obj 222 -925 outlet~;
#X text 610 -1188 delay in ms;
#X text 386 -932 delay buffer size in ms;
#X obj 295 -1068 +~;
#X obj 428 -1308 * 1000;
#X obj 428 -1384 t b f;
#X obj 428 -1339 /;
#X msg 428 -1360 1;
#X obj 381 -1434 t b f;
#X obj 374 -1093 *~ 0.97;
#X obj 440 -1153 delread~ \$0_guitar_buff 12;
#X obj 732 -1289 inlet;
#X obj 732 -1255 switch~;
#X obj 274 -1016 lop~ 3000;
#X obj 641 -1054 env~;
#X obj 642 -989 vu 15 120 empty empty -1 -8 0 10 -66577 -1 1 0;
#X obj 641 -1025 - 100;
#X obj 323 -987 delwrite~ \$0_guitar_buff 2000;
#X msg 304 -1394 1 1 \, 0 10 6;
#X connect 0 0 1 0;
#X connect 1 0 10 0;
#X connect 2 0 1 1;
#X connect 3 0 12 0;
#X connect 4 0 15 0;
#X connect 6 0 4 0;
#X connect 10 0 20 0;
#X connect 10 0 21 0;
#X connect 11 0 17 0;
#X connect 12 0 14 0;
#X connect 12 1 13 1;
#X connect 13 0 11 0;
#X connect 14 0 13 0;
#X connect 15 0 25 0;
#X connect 15 1 3 0;
#X connect 16 0 10 1;
#X connect 17 0 16 0;
#X connect 18 0 19 0;
#X connect 20 0 7 0;
#X connect 20 0 24 0;
#X connect 21 0 23 0;
#X connect 23 0 22 0;
#X connect 25 0 2 0;
