#N canvas 140 178 450 300 10;
#X obj 197 88 inlet~;
#X obj 197 215 outlet~;
#X obj 197 147 lop~;
#X obj 339 172 inlet;
#X obj 339 205 switch~;
#X obj 254 88 inlet;
#X floatatom 264 119 5 0 0 0 - - -;
#X obj 136 77 env~;
#X obj 137 140 vu 15 120 empty empty -1 -8 0 10 -66577 -1 1 0;
#X obj 136 106 - 100;
#X connect 0 0 2 0;
#X connect 0 0 7 0;
#X connect 2 0 1 0;
#X connect 3 0 4 0;
#X connect 5 0 2 1;
#X connect 5 0 6 0;
#X connect 7 0 9 0;
#X connect 9 0 8 0;
