#N canvas 410 54 633 560 10;
#X obj 66 121 inlet;
#X obj 66 246 phasor~;
#X obj 66 217 mtof;
#X obj 67 398 *~;
#X obj 187 274 / 127;
#X obj 66 169 unpack 0 0;
#X obj 67 446 outlet~;
#X obj 127 274 asdr;
#X obj 67 350 *~;
#X obj 183 238 sel 0;
#X obj 67 298 -~ 0.5;
#X connect 0 0 5 0;
#X connect 1 0 10 0;
#X connect 2 0 1 0;
#X connect 3 0 6 0;
#X connect 4 0 3 1;
#X connect 5 0 2 0;
#X connect 5 1 7 0;
#X connect 5 1 9 0;
#X connect 7 0 8 1;
#X connect 8 0 3 0;
#X connect 9 1 4 0;
#X connect 10 0 8 0;
