#N canvas -13 54 733 518 10;
#X obj 198 91 rev3~ 100 90 3000 20;
#X obj 113 309 outlet~;
#X obj 365 61 r damping;
#X obj 579 33 inlet;
#X obj 579 63 switch~;
#X floatatom 375 86 5 0 0 0 - - -, f 5;
#X obj 56 6 inlet~;
#X obj 291 43 r crossover;
#X floatatom 307 68 5 0 0 0 - - -, f 5;
#X floatatom 233 60 5 0 0 0 - - -, f 5;
#X obj 268 21 r liveness;
#X obj 52 206 *~;
#X obj 197 207 *~;
#X obj 286 283 env~;
#X obj 287 346 vu 15 120 empty empty -1 -8 0 10 -66577 -1 1 0;
#X obj 286 312 - 100;
#X obj 244 168 moses 1;
#X floatatom 244 193 5 0 0 0 - - -, f 5;
#X floatatom 244 149 5 0 0 0 - - -, f 5;
#X obj 85 96 * -1;
#X obj 85 121 + 2;
#X floatatom 85 144 5 0 0 0 - - -, f 5;
#X obj 85 167 moses 1;
#X text 302 164 moses: sends to left outlet if input < 1;
#X floatatom 85 192 5 0 0 0 - - -, f 5;
#X obj 85 73 r rev_wet_dry;
#X obj 244 123 r rev_wet_dry;
#X obj 46 290 env~;
#X obj 47 353 vu 15 120 empty empty -1 -8 0 10 -66577 -1 1 0;
#X obj 46 319 - 100;
#X connect 0 0 12 0;
#X connect 2 0 0 5;
#X connect 2 0 5 0;
#X connect 3 0 4 0;
#X connect 6 0 0 0;
#X connect 6 0 11 0;
#X connect 7 0 0 4;
#X connect 7 0 8 0;
#X connect 10 0 9 0;
#X connect 10 0 0 3;
#X connect 11 0 1 0;
#X connect 11 0 27 0;
#X connect 12 0 1 0;
#X connect 12 0 13 0;
#X connect 13 0 15 0;
#X connect 15 0 14 0;
#X connect 16 0 17 0;
#X connect 17 0 12 1;
#X connect 18 0 16 0;
#X connect 19 0 20 0;
#X connect 20 0 21 0;
#X connect 21 0 22 0;
#X connect 22 0 24 0;
#X connect 24 0 11 1;
#X connect 25 0 19 0;
#X connect 26 0 18 0;
#X connect 27 0 29 0;
#X connect 29 0 28 0;
