#N canvas 96 215 406 328 10;
#X obj 37 -1224 outlet~;
#X obj 218 -1363 inlet;
#X obj 218 -1330 switch~;
#X obj 112 -1333 env~;
#X obj 113 -1270 vu 15 120 empty empty -1 -8 0 10 -66577 -1 1 0;
#X obj 112 -1304 - 100;
#X obj 37 -1404 inlet;
#X obj 37 -1355 osc~;
#X obj 37 -1380 line~;
#X obj 45 -1288 *~ 0.1666;
#X connect 1 0 2 0;
#X connect 3 0 5 0;
#X connect 5 0 4 0;
#X connect 6 0 8 0;
#X connect 7 0 3 0;
#X connect 7 0 9 0;
#X connect 8 0 7 0;
#X connect 9 0 0 0;
