#N canvas 766 117 820 682 10;
#X obj 258 395 dac~;
#X obj 368 2 r fromCPP;
#X obj 387 86 osc~;
#X obj 248 4 r pulsar;
#X obj 324 86 phasor~;
#X obj 323 147 *~;
#X obj 200 125 *~, f 4;
#X obj 255 152 +~;
#X obj 214 86 - 1;
#X obj 30 13 r rando;
#X obj 73 45 abs;
#X obj 142 96 - 1;
#X obj 223 182 *~;
#X obj 236 228 lop~ 100;
#X obj 104 142 - 127;
#X obj 75 102 * 127;
#X obj 132 183 * -2;
#N canvas 1 118 762 732 synth 1;
#X obj 30 279 phasor~;
#X obj 115 2 notein;
#X obj 29 227 mtof;
#X obj 406 385 *~;
#X obj 315 360 *~;
#X obj 108 242 / 127;
#X obj 31 60 poly 1 1;
#X obj 29 108 pack 0 0 0;
#X obj 29 157 route 1;
#X obj 30 195 unpack 0 0;
#X floatatom 469 146 5 10 10000 0 - - -, f 5;
#X floatatom 515 148 5 10 10000 0 - - -, f 5;
#X floatatom 566 148 5 0 1 0 - - -, f 5;
#X floatatom 619 147 5 10 10000 0 - - -, f 5;
#X obj 469 179 s a;
#X obj 516 178 s d;
#X obj 565 177 s s;
#X obj 618 177 s r;
#X obj 254 116 * 0.1;
#X obj 467 472 outlet~;
#X obj 510 40 inlet;
#X obj 458 42 inlet;
#X obj 625 42 inlet;
#X obj 573 44 inlet;
#X connect 0 0 4 0;
#X connect 1 0 6 0;
#X connect 1 1 6 1;
#X connect 1 2 18 0;
#X connect 2 0 0 0;
#X connect 3 0 19 0;
#X connect 4 0 3 0;
#X connect 5 0 4 1;
#X connect 6 0 7 0;
#X connect 6 1 7 1;
#X connect 6 2 7 2;
#X connect 7 0 8 0;
#X connect 8 0 9 0;
#X connect 9 0 2 0;
#X connect 9 1 5 0;
#X connect 10 0 14 0;
#X connect 11 0 15 0;
#X connect 12 0 16 0;
#X connect 13 0 17 0;
#X connect 18 0 3 1;
#X connect 20 0 11 0;
#X connect 21 0 10 0;
#X connect 22 0 13 0;
#X connect 23 0 12 0;
#X restore 505 250 pd synth;
#X obj 313 326 +~;
#X obj 394 292 *~;
#X connect 1 0 2 0;
#X connect 1 0 4 0;
#X connect 2 0 5 0;
#X connect 3 0 8 0;
#X connect 3 0 6 1;
#X connect 4 0 6 0;
#X connect 5 0 7 1;
#X connect 6 0 7 0;
#X connect 7 0 12 1;
#X connect 8 0 5 1;
#X connect 9 0 10 0;
#X connect 10 0 11 0;
#X connect 10 0 15 0;
#X connect 10 0 19 1;
#X connect 11 0 12 0;
#X connect 12 0 13 0;
#X connect 13 0 18 0;
#X connect 14 0 16 0;
#X connect 15 0 14 0;
#X connect 16 0 13 1;
#X connect 17 0 19 0;
#X connect 18 0 0 0;
#X connect 18 0 0 1;
#X connect 19 0 18 1;
