#N canvas 481 67 553 432 10;
#X obj 158 -963 inlet;
#X msg 158 -922 bang;
#X obj 158 -881 f;
#X obj 228 -943 r start;
#X obj 158 -842 t b f;
#X obj 185 -716 line~;
#X obj 278 -838 r end;
#X obj 323 -838 r time;
#X obj 250 -795 pack 0 0 0;
#X obj 250 -760 route 0;
#X text 17 -1004 Patch to control cutoff frequency of vcf;
#X obj 340 -681 vu 15 120 empty empty -1 -8 0 10 -66577 -1 1 0;
#X obj 339 -743 env~;
#X obj 339 -714 - 100;
#X obj 424 -920 inlet;
#X obj 424 -884 switch~;
#X floatatom 377 -884 5 0 0 0 - - -, f 5;
#X obj 171 -641 outlet~;
#X obj 171 -670 vcf~;
#X obj 284 -693 r q;
#X obj 72 -967 inlet~;
#X floatatom 131 -933 5 0 0 0 - - -, f 5;
#X obj 66 -740 vu 15 120 empty empty -1 -8 0 10 -66577 -1 1 0;
#X obj 65 -802 env~;
#X obj 65 -773 - 100;
#X connect 0 0 1 0;
#X connect 0 0 21 0;
#X connect 1 0 2 0;
#X connect 2 0 4 0;
#X connect 3 0 2 1;
#X connect 4 0 8 0;
#X connect 4 1 5 0;
#X connect 5 0 12 0;
#X connect 5 0 18 1;
#X connect 6 0 8 1;
#X connect 7 0 8 2;
#X connect 8 0 9 0;
#X connect 9 0 5 0;
#X connect 12 0 13 0;
#X connect 13 0 11 0;
#X connect 14 0 15 0;
#X connect 14 0 16 0;
#X connect 18 0 17 0;
#X connect 19 0 18 2;
#X connect 20 0 18 0;
#X connect 20 0 23 0;
#X connect 23 0 24 0;
#X connect 24 0 22 0;
