#N canvas 125 152 909 708 10;
#X obj 315 -1080 inlet;
#X obj 112 -773 env~;
#X obj 113 -725 vu 15 120 empty empty -1 -8 0 10 -66577 -1 1 0;
#X obj 112 -750 - 100;
#X floatatom 85 -1035 5 0 0 0 - - -, f 5;
#X obj 85 -1060 + 1;
#X obj 85 -990 == 1;
#X obj 122 -990 == 2;
#X floatatom 122 -968 5 0 0 0 - - -, f 5;
#X floatatom 85 -969 5 0 0 0 - - -, f 5;
#X obj 85 -1081 r sound_type;
#X obj 315 -624 env~;
#X obj 316 -571 vu 15 120 empty empty -1 -8 0 10 -66577 -1 1 0;
#X obj 315 -600 - 100;
#X obj 85 -1014 t f f;
#X obj 273 -846 yelloscillator;
#X obj 121 -851 custom_wave_abstraction;
#X obj 315 -1052 unpack 0 0;
#X obj 315 -1023 pack 0 0;
#X obj 531 -867 sel 0;
#X obj 316 -665 outlet~;
#X obj 315 -725 voice_filter;
#X floatatom 567 -819 5 0 0 0 - - -, f 5;
#X connect 0 0 17 0;
#X connect 1 0 3 0;
#X connect 3 0 2 0;
#X connect 4 0 14 0;
#X connect 5 0 4 0;
#X connect 6 0 9 0;
#X connect 7 0 8 0;
#X connect 8 0 15 1;
#X connect 9 0 16 1;
#X connect 10 0 5 0;
#X connect 11 0 13 0;
#X connect 13 0 12 0;
#X connect 14 0 6 0;
#X connect 14 1 7 0;
#X connect 15 0 11 0;
#X connect 15 0 21 0;
#X connect 16 0 1 0;
#X connect 16 0 21 0;
#X connect 17 0 18 0;
#X connect 17 1 18 1;
#X connect 17 1 19 0;
#X connect 18 0 15 0;
#X connect 18 0 16 0;
#X connect 19 1 21 1;
#X connect 19 1 22 0;
#X connect 21 0 20 0;
