#N canvas 266 160 887 702 10;
#X obj 255 -940 inlet~;
#X obj 260 -750 outlet~;
#X obj 383 -876 inlet;
#X obj 355 -829 vcf_filter;
#X obj 176 -837 no_filter;
#X floatatom 85 -1035 5 0 0 0 - - -, f 5;
#X obj 85 -1060 + 1;
#X obj 85 -990 == 1;
#X obj 122 -990 == 2;
#X floatatom 122 -968 5 0 0 0 - - -, f 5;
#X floatatom 85 -969 5 0 0 0 - - -, f 5;
#X obj 85 -1014 t f f;
#X obj 85 -1081 r voice_filt_on;
#X obj 158 -692 vu 15 120 empty empty -1 -8 0 10 -66577 -1 1 0;
#X obj 155 -770 env~;
#X obj 155 -741 - 100;
#X obj 354 -721 vu 15 120 empty empty -1 -8 0 10 -66577 -1 1 0;
#X obj 351 -799 env~;
#X obj 351 -770 - 100;
#X floatatom 454 -835 5 0 0 0 - - -, f 5;
#X connect 0 0 4 0;
#X connect 0 0 3 0;
#X connect 2 0 3 1;
#X connect 2 0 19 0;
#X connect 3 0 1 0;
#X connect 3 0 17 0;
#X connect 4 0 1 0;
#X connect 4 0 14 0;
#X connect 5 0 11 0;
#X connect 6 0 5 0;
#X connect 7 0 10 0;
#X connect 8 0 9 0;
#X connect 9 0 3 2;
#X connect 10 0 4 1;
#X connect 11 0 7 0;
#X connect 11 1 8 0;
#X connect 12 0 6 0;
#X connect 14 0 15 0;
#X connect 15 0 13 0;
#X connect 17 0 18 0;
#X connect 18 0 16 0;
