#N canvas 167 63 532 500 10;
#X obj 21 379 vcf~;
#X floatatom 42 350 5 0 0 0 - - -, f 5;
#X obj 29 69 +~ 1;
#X obj 30 90 *~ 0.5;
#X obj 29 48 osc~ 2;
#X floatatom 184 212 6 0 0 0 - - -, f 6;
#X floatatom 132 131 6 0 0 0 - - -, f 6;
#X obj 132 103 -;
#X obj 70 158 bang;
#X obj 31 202 +~ 200;
#X obj 30 120 *~ 1500;
#X obj 20 -18 inlet~;
#X obj 21 414 outlet~;
#X obj 330 22 inlet;
#X obj 330 54 switch~;
#X obj 29 13 r wahwah_lfo_freq;
#X floatatom 76 35 5 0 0 0 - - -, f 5;
#X obj 132 74 r wahwah_max_freq;
#X obj 184 185 r wahwah_min_freq;
#X obj 42 325 r wahwah_q;
#X connect 0 0 12 0;
#X connect 1 0 0 2;
#X connect 2 0 3 0;
#X connect 3 0 10 0;
#X connect 4 0 2 0;
#X connect 7 0 6 0;
#X connect 7 0 10 1;
#X connect 8 0 7 0;
#X connect 9 0 0 1;
#X connect 10 0 9 0;
#X connect 11 0 0 0;
#X connect 13 0 14 0;
#X connect 15 0 4 0;
#X connect 15 0 16 0;
#X connect 17 0 7 0;
#X connect 18 0 5 0;
#X connect 18 0 9 1;
#X connect 18 0 7 1;
#X connect 18 0 8 0;
#X connect 19 0 1 0;
