#N canvas 7 231 962 538 10;
#X obj 213 188 env~;
#X obj 214 232 vu 15 120 empty empty -1 -8 0 10 -66577 -1 1 0;
#X obj 213 208 - 100;
#X obj 543 191 env~;
#X obj 544 236 vu 15 120 empty empty -1 -8 0 10 -66577 -1 1 0;
#X obj 543 211 - 100;
#X obj 644 196 env~;
#X obj 645 240 vu 15 120 empty empty -1 -8 0 10 -66577 -1 1 0;
#X obj 644 216 - 100;
#X obj 293 11 inlet;
#X obj 338 11 inlet;
#X obj 293 70 pack 0 0 0;
#X obj 293 49 poly 6 1;
#X obj 276 461 outlet~;
#X obj 110 188 env~;
#X obj 111 233 vu 15 120 empty empty -1 -8 0 10 -66577 -1 1 0;
#X obj 110 208 - 100;
#X obj 432 197 env~;
#X obj 433 241 vu 15 120 empty empty -1 -8 0 10 -66577 -1 1 0;
#X obj 432 217 - 100;
#X obj 293 95 route 1 2 3 4 5 6;
#X obj 321 195 env~;
#X obj 322 239 vu 15 120 empty empty -1 -8 0 10 -66577 -1 1 0;
#X obj 321 215 - 100;
#X obj 321 167 waves;
#X obj 110 166 waves;
#X obj 213 165 waves;
#X obj 432 169 waves;
#X obj 543 169 waves;
#X obj 644 168 waves;
#X connect 0 0 2 0;
#X connect 2 0 1 0;
#X connect 3 0 5 0;
#X connect 5 0 4 0;
#X connect 6 0 8 0;
#X connect 8 0 7 0;
#X connect 9 0 12 0;
#X connect 10 0 12 1;
#X connect 11 0 20 0;
#X connect 12 0 11 0;
#X connect 12 1 11 1;
#X connect 12 2 11 2;
#X connect 14 0 16 0;
#X connect 16 0 15 0;
#X connect 17 0 19 0;
#X connect 19 0 18 0;
#X connect 20 0 25 0;
#X connect 20 1 26 0;
#X connect 20 2 24 0;
#X connect 20 3 27 0;
#X connect 20 4 28 0;
#X connect 20 5 29 0;
#X connect 21 0 23 0;
#X connect 23 0 22 0;
#X connect 24 0 21 0;
#X connect 24 0 13 0;
#X connect 25 0 14 0;
#X connect 25 0 13 0;
#X connect 26 0 0 0;
#X connect 26 0 13 0;
#X connect 27 0 17 0;
#X connect 27 0 13 0;
#X connect 28 0 3 0;
#X connect 28 0 13 0;
#X connect 29 0 6 0;
#X connect 29 0 13 0;
