#N canvas 563 23 762 619 10;
#X obj 47 -1259 inlet;
#X obj 44 -748 outlet~;
#X obj 47 -1106 unpack 0 0;
#X obj 47 -1060 mtof;
#X obj 149 -1022 adsr;
#X obj 213 -1060 sel 0;
#X obj 213 -1032 / 127;
#X obj 47 -974 *~;
#X obj 46 -926 *~;
#X obj 47 -1135 pack 0 0;
#X obj 47 -1201 unpack 0 0;
#X obj 306 -1054 sel 0;
#X obj 46 -887 voice_filter;
#X obj 47 -1014 custom_waves;
#X connect 0 0 10 0;
#X connect 2 0 3 0;
#X connect 2 1 4 0;
#X connect 2 1 5 0;
#X connect 3 0 13 0;
#X connect 4 0 7 1;
#X connect 5 1 6 0;
#X connect 6 0 8 1;
#X connect 7 0 8 0;
#X connect 8 0 12 0;
#X connect 9 0 2 0;
#X connect 10 0 9 0;
#X connect 10 1 11 0;
#X connect 10 1 9 1;
#X connect 11 1 12 1;
#X connect 12 0 1 0;
#X connect 13 0 7 0;
