#N canvas 38 127 1424 719 10;
#X obj 156 204 env~;
#X obj 157 248 vu 15 120 empty empty -1 -8 0 10 -66577 -1 1 0;
#X obj 156 224 - 100;
#X obj 486 207 env~;
#X obj 487 252 vu 15 120 empty empty -1 -8 0 10 -66577 -1 1 0;
#X obj 486 227 - 100;
#X obj 587 212 env~;
#X obj 588 256 vu 15 120 empty empty -1 -8 0 10 -66577 -1 1 0;
#X obj 587 232 - 100;
#X obj 236 27 inlet;
#X obj 281 27 inlet;
#X obj 236 86 pack 0 0 0;
#X obj 236 65 poly 6 1;
#X obj 267 644 outlet~;
#X obj 53 204 env~;
#X obj 54 249 vu 15 120 empty empty -1 -8 0 10 -66577 -1 1 0;
#X obj 53 224 - 100;
#X obj 375 213 env~;
#X obj 376 257 vu 15 120 empty empty -1 -8 0 10 -66577 -1 1 0;
#X obj 375 233 - 100;
#X obj 236 111 route 1 2 3 4 5 6;
#X obj 264 211 env~;
#X obj 265 255 vu 15 120 empty empty -1 -8 0 10 -66577 -1 1 0;
#X obj 264 231 - 100;
#X obj 857 206 env~;
#X obj 858 250 vu 15 120 empty empty -1 -8 0 10 -66577 -1 1 0;
#X obj 857 226 - 100;
#X obj 1187 209 env~;
#X obj 1188 254 vu 15 120 empty empty -1 -8 0 10 -66577 -1 1 0;
#X obj 1187 229 - 100;
#X obj 1288 214 env~;
#X obj 1289 258 vu 15 120 empty empty -1 -8 0 10 -66577 -1 1 0;
#X obj 1288 234 - 100;
#X obj 937 29 inlet;
#X obj 982 29 inlet;
#X obj 937 88 pack 0 0 0;
#X obj 937 67 poly 6 1;
#X obj 946 649 outlet~;
#X obj 754 206 env~;
#X obj 755 251 vu 15 120 empty empty -1 -8 0 10 -66577 -1 1 0;
#X obj 754 226 - 100;
#X obj 1076 215 env~;
#X obj 1077 259 vu 15 120 empty empty -1 -8 0 10 -66577 -1 1 0;
#X obj 1076 235 - 100;
#X obj 937 113 route 1 2 3 4 5 6;
#X obj 965 213 env~;
#X obj 966 257 vu 15 120 empty empty -1 -8 0 10 -66577 -1 1 0;
#X obj 965 233 - 100;
#X obj 965 185 waves_right;
#X obj 754 184 waves_right;
#X obj 857 183 waves_right;
#X obj 1077 187 waves_right;
#X obj 1187 187 waves_right;
#X obj 1288 186 waves_right;
#X obj 264 183 waves_left;
#X obj 486 185 waves_left;
#X obj 53 182 waves_left;
#X obj 156 181 waves_left;
#X obj 375 185 waves_left;
#X obj 587 184 waves_left;
#X obj 267 506 *~;
#X obj 353 496 LFO;
#X obj 993 515 mtof;
#X obj 972 580 bp_filter;
#X floatatom 1084 497 5 0 0 0 - - -, f 5;
#X obj 1040 453 r cutoff_freq;
#X obj 946 487 *~ 1;
#X connect 0 0 2 0;
#X connect 2 0 1 0;
#X connect 3 0 5 0;
#X connect 5 0 4 0;
#X connect 6 0 8 0;
#X connect 8 0 7 0;
#X connect 9 0 12 0;
#X connect 10 0 12 1;
#X connect 11 0 20 0;
#X connect 12 0 11 0;
#X connect 12 1 11 1;
#X connect 12 2 11 2;
#X connect 14 0 16 0;
#X connect 16 0 15 0;
#X connect 17 0 19 0;
#X connect 19 0 18 0;
#X connect 20 0 56 0;
#X connect 20 1 57 0;
#X connect 20 2 54 0;
#X connect 20 3 58 0;
#X connect 20 4 55 0;
#X connect 20 5 59 0;
#X connect 21 0 23 0;
#X connect 23 0 22 0;
#X connect 24 0 26 0;
#X connect 26 0 25 0;
#X connect 27 0 29 0;
#X connect 29 0 28 0;
#X connect 30 0 32 0;
#X connect 32 0 31 0;
#X connect 33 0 36 0;
#X connect 34 0 36 1;
#X connect 35 0 44 0;
#X connect 36 0 35 0;
#X connect 36 1 35 1;
#X connect 36 2 35 2;
#X connect 38 0 40 0;
#X connect 40 0 39 0;
#X connect 41 0 43 0;
#X connect 43 0 42 0;
#X connect 44 0 49 0;
#X connect 44 1 50 0;
#X connect 44 2 48 0;
#X connect 44 3 51 0;
#X connect 44 4 52 0;
#X connect 44 5 53 0;
#X connect 45 0 47 0;
#X connect 47 0 46 0;
#X connect 48 0 45 0;
#X connect 48 0 66 0;
#X connect 49 0 38 0;
#X connect 49 0 66 0;
#X connect 50 0 24 0;
#X connect 50 0 66 0;
#X connect 51 0 41 0;
#X connect 51 0 66 0;
#X connect 52 0 27 0;
#X connect 52 0 66 0;
#X connect 53 0 30 0;
#X connect 53 0 66 0;
#X connect 54 0 21 0;
#X connect 54 0 60 0;
#X connect 55 0 3 0;
#X connect 55 0 60 0;
#X connect 56 0 14 0;
#X connect 56 0 60 0;
#X connect 57 0 0 0;
#X connect 57 0 60 0;
#X connect 58 0 17 0;
#X connect 58 0 60 0;
#X connect 59 0 6 0;
#X connect 59 0 60 0;
#X connect 60 0 13 0;
#X connect 61 0 60 1;
#X connect 62 0 63 1;
#X connect 65 0 62 0;
#X connect 65 0 64 0;
#X connect 66 0 37 0;
