#N canvas 396 23 933 643 10;
#X obj 256 -611 outlet~;
#X msg 256 -883 set tab_\$1;
#X obj 229 -1006 t b f;
#X obj 51 -844 phasor~;
#X obj 51 -804 *~ 8;
#X obj 51 -824 *~ 44100;
#X msg 168 -827 0;
#X obj 51 -781 threshold~ 352700 10;
#X obj 51 -937 spigot;
#X obj 51 -895 line~;
#X obj 51 -962 + 0.125;
#X obj 51 -989 f;
#X obj 51 -1018 r pitch;
#X msg 116 -954 1;
#X msg 153 -955 0;
#X obj 51 -916 pack 0 5;
#X obj 256 -787 tabread4~;
#X obj 149 -855 t b b b;
#X msg 188 -954 0;
#X obj 68 -869 *~ 1;
#X obj 327 -1230 inlet;
#X obj 327 -1139 swap;
#X obj 327 -1117 pack 0 0;
#X obj 366 -1072 swap;
#X obj 366 -1047 pack 0 0;
#X obj 366 -1023 unpack 0 0;
#X obj 327 -1093 route 0;
#X obj 256 -688 *~;
#X floatatom 293 -1071 5 0 0 0 - - -;
#X obj 401 -705 line~;
#X obj 327 -771 pack 0 0;
#X obj 372 -810 r r;
#X obj 487 -818 r a;
#X obj 442 -768 pack 1 0;
#X floatatom 501 -788 5 0 0 0 - - -;
#X floatatom 389 -786 5 0 0 0 - - -;
#X floatatom 366 -992 5 0 0 0 - - -;
#X floatatom 430 -993 5 0 0 0 - - -;
#X obj 442 -794 / 127;
#X obj 578 -752 pack 0 0 0;
#X obj 578 -723 route 0;
#X obj 578 -780 delay;
#X obj 605 -801 + 1;
#X obj 639 -787 r s;
#X obj 671 -788 r d;
#X msg 333 -956 stop;
#X obj 423 -906 t b f b;
#X obj 462 -876 0;
#X msg 327 -796 0;
#X obj 327 -1192 unpack 0 0;
#X obj 327 -1163 pack 0 0;
#X obj 807 -739 sel 0;
#X obj 367 -643 voice_filter;
#X floatatom 448 -1150 5 0 0 0 - - -;
#X floatatom 279 -1149 5 0 0 0 - - -;
#X connect 1 0 16 0;
#X connect 2 0 11 0;
#X connect 2 1 1 0;
#X connect 2 1 13 0;
#X connect 2 1 14 0;
#X connect 3 0 5 0;
#X connect 4 0 7 0;
#X connect 4 0 16 0;
#X connect 5 0 4 0;
#X connect 6 0 7 1;
#X connect 7 0 17 0;
#X connect 8 0 15 0;
#X connect 9 0 19 0;
#X connect 10 0 8 0;
#X connect 11 0 10 0;
#X connect 12 0 11 0;
#X connect 13 0 8 1;
#X connect 13 0 19 1;
#X connect 14 0 3 1;
#X connect 15 0 9 0;
#X connect 16 0 27 0;
#X connect 17 1 6 0;
#X connect 17 2 18 0;
#X connect 18 0 8 1;
#X connect 18 0 19 1;
#X connect 18 0 3 1;
#X connect 19 0 3 0;
#X connect 20 0 49 0;
#X connect 21 0 22 0;
#X connect 21 1 22 1;
#X connect 22 0 26 0;
#X connect 23 0 24 0;
#X connect 23 1 24 1;
#X connect 24 0 25 0;
#X connect 25 0 2 0;
#X connect 25 0 36 0;
#X connect 25 1 37 0;
#X connect 25 1 46 0;
#X connect 26 0 28 0;
#X connect 26 0 48 0;
#X connect 26 0 45 0;
#X connect 26 1 23 0;
#X connect 27 0 0 0;
#X connect 29 0 27 1;
#X connect 30 0 29 0;
#X connect 31 0 30 1;
#X connect 31 0 35 0;
#X connect 32 0 33 1;
#X connect 32 0 34 0;
#X connect 32 0 42 0;
#X connect 33 0 29 0;
#X connect 38 0 33 0;
#X connect 39 0 40 0;
#X connect 40 0 29 0;
#X connect 41 0 39 0;
#X connect 42 0 41 1;
#X connect 43 0 39 1;
#X connect 44 0 39 2;
#X connect 45 0 41 0;
#X connect 46 0 41 0;
#X connect 46 1 38 0;
#X connect 46 2 47 0;
#X connect 47 0 29 0;
#X connect 48 0 30 0;
#X connect 49 0 50 0;
#X connect 49 0 54 0;
#X connect 49 1 50 1;
#X connect 49 1 53 0;
#X connect 50 0 21 0;
#X connect 51 1 52 1;
